<svg width="45" height="38" viewBox="0 0 45 38" fill="none" xmlns="http://www.w3.org/2000/svg">
<path d="M42.667 14H33.087L24.327 0.88C23.947 0.32 23.307 0 22.667 0C22.027 0 21.387 0.32 21.007 0.9L12.247 14H2.66699C1.56699 14 0.666992 14.9 0.666992 16C0.666992 16.18 0.666992 16.36 0.746992 16.54L5.82699 35.08C6.28699 36.76 7.82699 38 9.66699 38H35.667C37.507 38 39.047 36.76 39.527 35.08L44.607 16.54L44.667 16C44.667 14.9 43.767 14 42.667 14ZM22.667 5.6L28.267 14H17.067L22.667 5.6ZM35.667 34H9.66699L5.28699 18H40.067L35.667 34ZM22.667 22C20.467 22 18.667 23.8 18.667 26C18.667 28.2 20.467 30 22.667 30C24.867 30 26.667 28.2 26.667 26C26.667 23.8 24.867 22 22.667 22Z" fill="black"/>
</svg>
