<svg width="40" height="44" viewBox="0 0 40 44" fill="none" xmlns="http://www.w3.org/2000/svg">
<path d="M24 24H27V29.64L31.88 32.46L30.38 35.06L24 31.38V24ZM32 14H4V36H13.34C12.48 34.18 12 32.14 12 30C12 26.287 13.475 22.726 16.1005 20.1005C18.726 17.475 22.287 16 26 16C28.14 16 30.18 16.48 32 17.34V14ZM4 40C1.78 40 0 38.2 0 36V8C0 5.78 1.78 4 4 4H6V0H10V4H26V0H30V4H32C33.0609 4 34.0783 4.42143 34.8284 5.17157C35.5786 5.92172 36 6.93913 36 8V20.2C38.48 22.72 40 26.18 40 30C40 33.713 38.525 37.274 35.8995 39.8995C33.274 42.525 29.713 44 26 44C22.18 44 18.72 42.48 16.2 40H4ZM26 20.3C23.4274 20.3 20.9602 21.322 19.1411 23.1411C17.322 24.9602 16.3 27.4274 16.3 30C16.3 35.36 20.64 39.7 26 39.7C27.2738 39.7 28.5352 39.4491 29.712 38.9616C30.8889 38.4742 31.9582 37.7597 32.8589 36.8589C33.7597 35.9582 34.4742 34.8889 34.9616 33.712C35.4491 32.5352 35.7 31.2738 35.7 30C35.7 24.64 31.36 20.3 26 20.3Z" fill="black"/>
</svg>
