<svg width="39" height="36" viewBox="0 0 39 36" fill="none" xmlns="http://www.w3.org/2000/svg">
<path d="M26.333 31C21.333 31 16.973 28.16 14.813 24H26.333L28.333 20H13.493C13.393 19.34 13.333 18.68 13.333 18C13.333 17.32 13.393 16.66 13.493 16H26.333L28.333 12H14.813C16.973 7.84 21.333 5 26.333 5C29.553 5 32.513 6.18 34.793 8.14L38.333 4.6C35.153 1.74 30.933 0 26.333 0C18.493 0 11.853 5 9.33301 12H2.33301L0.333008 16H8.45301C8.33301 16.66 8.33301 17.32 8.33301 18C8.33301 18.68 8.33301 19.34 8.45301 20H2.33301L0.333008 24H9.33301C11.853 31 18.493 36 26.333 36C30.953 36 35.153 34.26 38.333 31.4L34.773 27.86C32.513 29.82 29.573 31 26.333 31Z" fill="black"/>
</svg>
