<svg width="49" height="48" viewBox="0 0 49 48" fill="none" xmlns="http://www.w3.org/2000/svg">
<path d="M6.51158 23.2307C6.69875 18.423 8.52951 14.3493 12.0039 11.0096C15.4782 7.66987 19.6436 6 24.5 6C26.9847 6 29.3199 6.47372 31.5058 7.42115C33.6917 8.36858 35.5968 9.65448 37.2212 11.2789C38.8455 12.9032 40.1315 14.8084 41.0789 16.9943C42.0263 19.1801 42.5 21.5154 42.5 24C42.5 26.4769 42.0263 28.8103 41.0789 31C40.1315 33.1897 38.8455 35.0968 37.2212 36.7211C35.5968 38.3455 33.6917 39.6314 31.5058 40.5789C29.3199 41.5263 26.9847 42 24.5 42C22.8052 42 21.1404 41.7519 19.5058 41.2558C17.8712 40.7596 16.2872 40.0321 14.7539 39.0731C14.5513 38.9346 14.4398 38.7519 14.4192 38.525C14.3987 38.2981 14.4821 38.091 14.6693 37.9039C14.7744 37.7987 14.9186 37.7359 15.1019 37.7154C15.2853 37.6949 15.45 37.7295 15.5962 37.8193C16.9628 38.6962 18.4007 39.3558 19.9096 39.7981C21.4186 40.2404 22.9488 40.4616 24.5 40.4616C29.1129 40.4616 33.0097 38.8712 36.1904 35.6904C39.3712 32.5096 40.9616 28.6128 40.9616 24C40.9616 19.3872 39.3712 15.4904 36.1904 12.3096C33.0097 9.12883 29.1129 7.53845 24.5 7.53845C20.018 7.53845 16.2026 9.0455 13.0539 12.0596C9.90515 15.0737 8.2372 18.7974 8.05003 23.2307C8.04233 23.459 7.96733 23.6442 7.82503 23.7866C7.68273 23.9289 7.49746 24 7.26923 24C7.04103 24 6.85578 23.9269 6.71348 23.7808C6.57118 23.6346 6.50388 23.4513 6.51158 23.2307ZM33.6039 20.0693V26.5923C33.6039 26.8205 33.675 27.0058 33.8173 27.1481C33.9596 27.2904 34.1449 27.3615 34.3731 27.3615C34.6013 27.3615 34.7866 27.2904 34.9289 27.1481C35.0712 27.0058 35.1423 26.8205 35.1423 26.5923V18.9C35.1423 18.5179 35.0071 18.1916 34.7366 17.9211C34.4661 17.6506 34.1398 17.5154 33.7577 17.5154H26.0654C25.8372 17.5154 25.652 17.5866 25.5096 17.7289C25.3673 17.8712 25.2962 18.0564 25.2962 18.2846C25.2962 18.5128 25.3673 18.6981 25.5096 18.8404C25.652 18.9827 25.8372 19.0539 26.0654 19.0539H32.5116L22.4154 29.2269L17.2308 24.7693C16.9564 24.5282 16.6385 24.4244 16.2769 24.4577C15.9154 24.491 15.6141 24.6282 15.3731 24.8693L8.73848 31.5039C8.60771 31.609 8.52375 31.741 8.48658 31.9C8.44938 32.059 8.47565 32.2205 8.56538 32.3846C8.69618 32.5974 8.88401 32.716 9.12888 32.7404C9.37375 32.7648 9.58208 32.6911 9.75388 32.5193L16.2808 25.9923L21.4654 30.3731C21.7398 30.6141 22.0577 30.7308 22.4193 30.7231C22.7808 30.7154 23.0821 30.591 23.3231 30.35L33.6039 20.0693Z" fill="#002F63"/>
</svg>
