<svg width="49" height="48" viewBox="0 0 49 48" fill="none" xmlns="http://www.w3.org/2000/svg">
  <path
    d="M21.55 29.4346L16.3039 24.15C16.132 24.0038 15.9385 23.9243 15.7231 23.9116C15.5077 23.8987 15.3102 23.982 15.1307 24.1616C14.959 24.3333 14.873 24.5269 14.873 24.7423C14.873 24.9577 14.959 25.1513 15.1307 25.3231L20.5769 30.7808C20.8513 31.0808 21.1756 31.2308 21.55 31.2308C21.9244 31.2308 22.2487 31.0808 22.5231 30.7808L33.7808 19.5616C33.9346 19.3821 34.018 19.1846 34.0308 18.9693C34.0436 18.7539 33.9603 18.5564 33.7808 18.3769C33.6013 18.2051 33.4019 18.1212 33.1827 18.125C32.9635 18.1288 32.7679 18.2166 32.5961 18.3884L21.55 29.4346ZM24.5067 42C22.0253 42 19.6954 41.5277 17.517 40.583C15.3386 39.6384 13.4305 38.348 11.7929 36.712C10.1554 35.0759 8.86383 33.1697 7.9183 30.9933C6.97277 28.8169 6.5 26.4881 6.5 24.0067C6.5 21.5176 6.97232 19.1774 7.91695 16.9862C8.86162 14.795 10.152 12.8889 11.7881 11.268C13.4241 9.64705 15.3303 8.36383 17.5067 7.4183C19.6831 6.47277 22.0119 6 24.4933 6C26.9824 6 29.3226 6.47232 31.5138 7.41695C33.705 8.36162 35.6111 9.64365 37.232 11.263C38.853 12.8824 40.1362 14.7867 41.0817 16.9759C42.0272 19.1651 42.5 21.5042 42.5 23.9933C42.5 26.4747 42.0277 28.8046 41.083 30.983C40.1384 33.1614 38.8563 35.0695 37.237 36.7071C35.6176 38.3446 33.7133 39.6362 31.5241 40.5817C29.3349 41.5272 26.9958 42 24.5067 42ZM24.5 40.4616C29.0795 40.4616 32.968 38.8609 36.1654 35.6596C39.3628 32.4583 40.9616 28.5718 40.9616 24C40.9616 19.4205 39.3628 15.532 36.1654 12.3346C32.968 9.13717 29.0795 7.53845 24.5 7.53845C19.9282 7.53845 16.0417 9.13717 12.8404 12.3346C9.6391 15.532 8.03845 19.4205 8.03845 24C8.03845 28.5718 9.6391 32.4583 12.8404 35.6596C16.0417 38.8609 19.9282 40.4616 24.5 40.4616Z"
    fill="#002F63"/>
</svg>
