<svg width="49" height="48" viewBox="0 0 49 48" fill="none" xmlns="http://www.w3.org/2000/svg">
  <path
    d="M13.3077 40C12.659 40 12.0566 39.7871 11.5005 39.3612C10.9444 38.9354 10.5827 38.4125 10.4154 37.7923C9.58202 34.8231 8.90888 32.3552 8.39595 30.3887C7.88298 28.4221 7.48845 26.7607 7.21235 25.4046C6.93622 24.0484 6.74847 22.885 6.6491 21.9146C6.5497 20.9442 6.5 19.9667 6.5 18.982C6.5 16.4914 7.37435 14.3718 9.12305 12.6231C10.8718 10.8744 12.9974 10 15.5 10H26.5C27.4 8.8 28.4583 7.83333 29.675 7.1C30.8917 6.36667 32.1667 6 33.5 6C33.7692 6 34.0032 6.09935 34.202 6.29805C34.4007 6.49678 34.5 6.73077 34.5 7C34.5 7.0718 34.4878 7.13718 34.4634 7.19615C34.4391 7.25512 34.4193 7.32948 34.4039 7.41925C34.2449 7.83718 34.0878 8.31923 33.9327 8.8654C33.7776 9.41153 33.6154 10.1705 33.4461 11.1423L39.3039 17H41.1154C41.5141 17 41.8446 17.1311 42.1068 17.3932C42.3689 17.6554 42.5 17.9859 42.5 18.3846V26.4654C42.5 26.7825 42.4168 27.067 42.2504 27.3188C42.084 27.5706 41.8429 27.731 41.527 27.8L37.2384 29.238L34.6116 38.0039C34.4107 38.6064 34.0723 39.0897 33.5963 39.4538C33.1203 39.8179 32.569 40 31.9423 40H29.2692C28.5211 40 27.8726 39.7255 27.3236 39.1764C26.7745 38.6274 26.5 37.9789 26.5 37.2308V36H18.5V37.2308C18.5 37.9789 18.2255 38.6274 17.6764 39.1764C17.1274 39.7255 16.4789 40 15.7308 40H13.3077ZM13.173 38.4616H15.7308C16.0898 38.4616 16.3846 38.3462 16.6154 38.1154C16.8462 37.8846 16.9615 37.5898 16.9615 37.2308V34.4615H28.0385V37.2308C28.0385 37.5898 28.1538 37.8846 28.3846 38.1154C28.6154 38.3462 28.9102 38.4616 29.2692 38.4616H31.9423C32.1987 38.4616 32.4359 38.3846 32.6539 38.2308C32.8718 38.0769 33.032 37.859 33.1346 37.577L35.9769 28.077L40.9616 26.3654V18.5384H38.6693L31.9616 11.8307C31.9693 11.2641 32.0353 10.5981 32.1596 9.8327C32.284 9.0673 32.4667 8.32563 32.7077 7.6077C31.6077 7.89743 30.591 8.41538 29.6577 9.16155C28.7244 9.90768 28.0205 10.7 27.5461 11.5384H15.5C13.4187 11.5384 11.6547 12.2617 10.2082 13.7082C8.76172 15.1547 8.03845 16.9187 8.03845 19C8.03845 20.3487 8.37307 22.6302 9.0423 25.8443C9.71153 29.0584 10.6654 32.9436 11.9039 37.5C11.9808 37.7821 12.141 38.0128 12.3846 38.1923C12.6282 38.3718 12.891 38.4616 13.173 38.4616ZM32.5 21.5384C32.9128 21.5384 33.2725 21.3853 33.5789 21.0789C33.8853 20.7725 34.0385 20.4128 34.0385 20C34.0385 19.5872 33.8853 19.2275 33.5789 18.9211C33.2725 18.6147 32.9128 18.4616 32.5 18.4616C32.0872 18.4616 31.7275 18.6147 31.4211 18.9211C31.1147 19.2275 30.9616 19.5872 30.9616 20C30.9616 20.4128 31.1147 20.7725 31.4211 21.0789C31.7275 21.3853 32.0872 21.5384 32.5 21.5384ZM25.7307 16.5384C25.95 16.5384 26.133 16.4641 26.2798 16.3155C26.4266 16.1669 26.5 15.9817 26.5 15.7598C26.5 15.5379 26.4266 15.3557 26.2798 15.2134C26.133 15.0711 25.95 15 25.7307 15H17.2693C17.05 15 16.867 15.0743 16.7202 15.2229C16.5734 15.3715 16.5 15.5568 16.5 15.7787C16.5 16.0006 16.5734 16.1827 16.7202 16.325C16.867 16.4673 17.05 16.5384 17.2693 16.5384H25.7307Z"
    fill="#002F63"/>
</svg>
