<svg xmlns="http://www.w3.org/2000/svg" width="146" height="66" viewBox="0 0 146 66">
	<g fill="none" fill-rule="evenodd" transform="translate(-1)">
		<path fill="#002F63" d="M95.6897 50.6695C94.6607 47.2085 92.0877 45.3845 89.0007 45.3845 85.9147 45.3845 83.3887 47.3015 82.5927 50.6695L95.6897 50.6695zM100.1797 59.4165C97.4667 62.8305 93.7247 64.8885 89.6557 64.9355 81.7517 64.9355 77.1677 58.9955 77.1677 53.0075 77.1677 47.0215 81.7517 41.0815 89.6557 41.0815 94.3797 41.0815 101.3957 44.9635 101.3957 53.8035L101.3957 54.6915 82.5927 54.6915C82.8747 58.1525 86.1017 60.6325 89.5157 60.6325 92.1347 60.6325 94.3797 59.3695 96.0637 57.1245L100.1797 59.4165zM139.8689 53.6212C138.4389 53.9012 137.0709 54.1522 135.7109 54.4422 134.5399 54.6912 133.3539 54.9122 132.2209 55.2842 131.2559 55.6002 130.4529 56.2262 130.3139 57.3462 130.1249 58.8602 130.9939 59.9232 132.5599 60.1822 133.7939 60.3852 135.0209 60.3422 136.2259 60.0342 137.9289 59.5992 139.3439 58.7442 139.6949 56.8872 139.9009 55.7982 139.8229 54.6562 139.8689 53.6212L139.8689 53.6212zM146.9999 64.1672C145.2999 64.7912 143.6039 64.8482 142.1109 63.9292 141.4609 63.5292 141.1159 62.8772 140.8699 62.1072 140.5699 62.3862 140.3209 62.6452 140.0449 62.8712 138.9319 63.7812 137.6259 64.2612 136.2329 64.5192 134.1149 64.9122 131.9989 65.0012 129.8909 64.4222 127.1399 63.6652 125.4109 61.7902 125.1279 59.0522 124.8389 56.2522 125.8819 54.0492 128.3329 52.5742 130.1789 51.4632 132.2239 50.9492 134.3159 50.5802 135.6649 50.3432 137.0249 50.1612 138.3699 49.9052 138.9609 49.7922 139.6239 49.6452 139.7719 48.9172 139.9359 48.1122 139.8369 47.3332 139.2259 46.7052 138.4879 45.9472 137.5249 45.7242 136.5259 45.6482 133.7289 45.4372 131.6439 46.4352 129.3169 48.7322 128.2129 47.6912 127.2259 46.7622 126.1989 45.7952 127.6159 43.9422 129.0919 42.8462 131.0619 42.0712 133.4669 41.1242 135.9509 40.9992 138.4769 41.3852 140.1299 41.6372 141.6649 42.1822 142.9299 43.3272 144.1799 44.4582 144.7929 45.9082 144.9409 47.5552 145.0199 48.4332 145.0139 49.3212 145.0169 50.2052 145.0259 52.7522 145.0199 55.2992 145.0199 57.8462 145.0199 57.9832 145.0189 58.1202 145.0229 58.2572 145.0619 59.6012 145.4059 59.9512 146.7389 60.0022 146.8119 60.0052 146.8879 60.0062 146.9999 60.0062L146.9999 64.1672zM51.6419 64.7867C53.4499 64.8077 55.2189 64.4817 56.9229 63.6707 59.7129 62.3407 61.2759 60.0927 61.7249 57.0597 61.8199 56.4137 61.8499 55.5007 61.8499 55.1007L61.8499 41.9097 56.5009 41.9097 56.5009 54.5667C56.4969 55.2457 56.4189 55.9377 56.2689 56.5997 55.8529 58.4367 54.6279 59.4627 52.8179 59.7987 52.4249 59.8717 52.0319 59.9127 51.6409 59.9167 51.2499 59.9127 50.8569 59.8717 50.4639 59.7987 48.6549 59.4627 47.4289 58.4367 47.0129 56.5997 46.8629 55.9377 46.7849 55.2457 46.7819 54.5667L46.7819 41.9097 41.4319 41.9097 41.4319 55.1007C41.4319 55.5007 41.4619 56.4137 41.5579 57.0597 42.0069 60.0927 43.5689 62.3407 46.3589 63.6707 48.0629 64.4817 49.8329 64.8077 51.6409 64.7867L51.6419 64.7867z"/>
		<polygon fill="#002F63" points="125.385 41.475 113.35 65.369 101.316 41.475 106.675 41.448 113.35 54.702 120.013 41.475"/>
		<path fill="#002F63" d="M74.2391,60.027 C72.9571,59.96 72.2501,59.322 72.0561,58.052 C71.9771,57.534 71.9531,57.004 71.9531,56.48 L71.9531,33.371 L66.5491,33.371 L66.5491,57.064 C66.5501,57.882 66.5731,58.711 66.6931,59.519 C66.9781,61.437 67.7721,63.069 69.5451,64.062 C70.7101,64.715 71.9921,64.94 73.3021,64.947 C74.2811,64.953 75.2611,64.842 76.2381,64.784 L76.2381,60.033 C75.5571,60.033 74.8961,60.062 74.2391,60.027"/>
		<polygon fill="#002F63" points="2.064 28 27 41.864 27 33.379 17.5 28"/>
		<polygon fill="#002F63" points="6.944 0 5.297 7.64 26.55 19 42.191 19"/>
		<polygon fill="#00AEEA" points="20 64.3 27 64.3 27 43.5 20 39.5"/>
		<polygon fill="#00AEEA" points="2.651 20.044 1 27 41.825 27 43.407 20.044"/>
		<polygon fill="#002F63" points="28 33.377 28 38.328 28 64.188 33.084 64.188 33.084 38.328 41.431 38.328 41.431 33.377"/>
	</g>
</svg>
