<svg fill="none" height="66" viewBox="0 0 146 66" width="146" xmlns="http://www.w3.org/2000/svg"><g clip-rule="evenodd" fill-rule="evenodd"><g fill="#002f63"><path d="m94.6888 50.6664c-1.029-3.461-3.602-5.285-6.689-5.285-3.086 0-5.612 1.917-6.408 5.285zm4.49 8.747c-2.713 3.414-6.455 5.472-10.524 5.519-7.904 0-12.488-5.94-12.488-11.928 0-5.986 4.584-11.926 12.488-11.926 4.724 0 11.7402 3.882 11.7402 12.722v.888h-18.8032c.282 3.461 3.509 5.941 6.923 5.941 2.619 0 4.864-1.263 6.548-3.508zm39.6892-5.7953c-1.43.28-2.798.531-4.158.821-1.171.249-2.357.47-3.49.842-.965.316-1.768.942-1.907 2.062-.189 1.514.68 2.577 2.246 2.836 1.234.203 2.461.16 3.666-.148 1.703-.435 3.118-1.29 3.469-3.147.206-1.089.128-2.231.174-3.266zm7.131 10.546c-1.7.624-3.396.681-4.889-.238-.65-.4-.995-1.052-1.241-1.822-.3.279-.549.538-.825.764-1.113.91-2.419 1.39-3.812 1.648-2.118.393-4.234.482-6.342-.097-2.751-.757-4.48-2.632-4.763-5.37-.289-2.8.754-5.003 3.205-6.478 1.846-1.111 3.891-1.625 5.983-1.994 1.349-.237 2.709-.419 4.054-.675.591-.113 1.254-.26 1.402-.988.164-.805.065-1.584-.546-2.212-.738-.758-1.701-.981-2.7-1.057-2.797-.211-4.882.787-7.209 3.084-1.104-1.041-2.091-1.97-3.118-2.937 1.417-1.853 2.893-2.949 4.863-3.724 2.405-.947 4.889-1.072 7.415-.686 1.653.252 3.188.797 4.453 1.942 1.25 1.131 1.863 2.581 2.011 4.228.079.878.073 1.766.076 2.65.009 2.547.003 5.094.003 7.641 0 .137-.001.274.003.411.039 1.344.383 1.694 1.716 1.745.073.003.149.004.261.004zm-95.358.6195c1.808.021 3.577-.305 5.281-1.116 2.79-1.33 4.353-3.578 4.802-6.611.095-.646.125-1.559.125-1.959v-13.191h-5.349v12.657c-.004.679-.082 1.371-.232 2.033-.416 1.837-1.641 2.863-3.451 3.199-.393.073-.786.114-1.177.118-.391-.004-.784-.045-1.177-.118-1.809-.336-3.035-1.362-3.451-3.199-.15-.662-.228-1.354-.231-2.033v-12.657h-5.35v13.191c0 .4.03 1.313.126 1.959.449 3.033 2.011 5.281 4.801 6.611 1.704.811 3.475 1.137 5.283 1.116z"/><path d="m124.384 41.4719-12.035 23.894-12.034-23.894 5.359-.027 6.675 13.254 6.663-13.227z"/><path d="m73.2382 60.024c-1.282-.067-1.989-.705-2.183-1.975-.079-.518-.103-1.048-.103-1.572v-23.1h-5.404v23.684c.001.818.024 1.647.144 2.455.285 1.918 1.079 3.55 2.852 4.543 1.165.653 2.447.878 3.757.885.979.006 1.959-.105 2.936-.163v-4.751c-.681 0-1.342.029-1.999-.006z"/><path d="m1.064 28 24.936 13.864v-8.485l-9.5-5.379z"/><path d="m5.944 0-1.647 7.64 21.253 11.36h15.641z"/></g><path d="m19 64.5h7v-21l-7-4z" fill="#00aeea"/><path d="m1.651 20.0439-1.651 6.956h40.825l1.582-6.956z" fill="#00aeea"/><path d="m27 33.377v4.951 26.172h5.084v-26.172h8.347v-4.951z" fill="#002f63"/></g></svg>