<?xml version="1.0" encoding="utf-8"?>
<!-- Generator: Adobe Illustrator 20.0.0, SVG Export Plug-In . SVG Version: 6.00 Build 0)  -->
<svg version="1.1" id="Layer_1" xmlns="http://www.w3.org/2000/svg" xmlns:xlink="http://www.w3.org/1999/xlink" x="0px" y="0px"
	 viewBox="0 0 200 87.3" style="enable-background:new 0 0 200 87.3;" xml:space="preserve">
<style type="text/css">
	.st0{fill:#23565E;}
	.st1{fill:#3891B0;}
	.st2{fill:#3A3A3A;}
</style>
<polygon class="st0" points="1.4,38.6 34.4,56.5 34.4,45.2 22,38.5 "/>
<polygon class="st0" points="34.1,26.4 54.9,26.4 7.9,0.7 5.7,10.9 "/>
<polygon class="st1" points="24.4,86.3 34.4,86.3 34.4,57.8 24.4,52.3 "/>
<polygon class="st1" points="2.2,27.5 0,37.5 54.4,37.4 56.5,27.5 "/>
<path class="st2" d="M136.2,80c-3.6,4.6-8.6,7.3-14,7.4c-10.5,0-16.7-7.9-16.7-15.9s6.1-15.9,16.7-15.9c6.3,0,15.7,5.2,15.7,17v1.2
	h-25.1c0.4,4.6,4.7,7.9,9.2,7.9c3.5,0,6.5-1.7,8.7-4.7L136.2,80z M130.3,68.3c-1.4-4.6-4.8-7-8.9-7s-7.5,2.6-8.5,7H130.3z"/>
<path class="st2" d="M200,86.3c-2.3,0.8-4.5,0.9-6.5-0.3c-0.9-0.5-1.3-1.4-1.7-2.4c-0.4,0.4-0.7,0.7-1.1,1c-1.5,1.2-3.2,1.9-5.1,2.2
	c-2.8,0.5-5.6,0.6-8.5-0.1c-3.7-1-6-3.5-6.4-7.2s1-6.7,4.3-8.6c2.5-1.5,5.2-2.2,8-2.7c1.8-0.3,3.6-0.6,5.4-0.9
	c0.8-0.1,1.7-0.3,1.9-1.3c0.2-1.1,0.1-2.1-0.7-2.9c-1-1-2.3-1.3-3.6-1.4c-3.7-0.3-6.5,1-9.6,4.1c-1.5-1.4-2.8-2.6-4.2-3.9
	c1.9-2.5,3.9-3.9,6.5-5c3.2-1.3,6.5-1.4,9.9-0.9c2.2,0.3,4.2,1.1,5.9,2.6s2.5,3.4,2.7,5.6c0.1,1.2,0.1,2.4,0.1,3.5
	c0,3.4,0,6.8,0,10.2c0,0.2,0,0.4,0,0.5c0.1,1.8,0.5,2.3,2.3,2.3c0.1,0,0.2,0,0.3,0v5.6H200z M190.5,72.2c-1.9,0.4-3.7,0.7-5.5,1.1
	c-1.6,0.3-3.1,0.6-4.7,1.1c-1.3,0.4-2.4,1.3-2.5,2.7c-0.3,2,0.9,3.4,3,3.8c1.6,0.3,3.3,0.2,4.9-0.2c2.3-0.6,4.2-1.7,4.6-4.2
	C190.5,75.1,190.4,73.6,190.5,72.2z"/>
<path class="st2" d="M67.5,87.1c2.4,0,4.8-0.4,7-1.5c3.7-1.8,5.8-4.8,6.4-8.8c0.1-0.9,0.2-2.1,0.2-2.6V56.6H74v16.9
	c0,0.9-0.1,1.8-0.3,2.7c-0.6,2.4-2.2,3.8-4.6,4.3c-0.5,0.1-1,0.2-1.6,0.2c-0.5,0-1-0.1-1.6-0.2c-2.4-0.4-4-1.8-4.6-4.3
	c-0.2-0.9-0.3-1.8-0.3-2.7V56.6h-7.1v17.6c0,0.5,0,1.8,0.2,2.6c0.6,4,2.7,7,6.4,8.8C62.8,86.7,65.1,87.1,67.5,87.1L67.5,87.1z"/>
<polygon class="st2" points="169.8,56 153.8,87.9 137.8,56 144.9,56 153.8,73.7 162.7,56 "/>
<path class="st2" d="M99,80.8c-1.7-0.1-2.7-0.9-2.9-2.6C96,77.5,96,76.8,96,76.1V45.2h-7.2v31.6c0,1.1,0,2.2,0.2,3.3
	c0.4,2.6,1.4,4.7,3.8,6.1c1.6,0.9,3.3,1.2,5,1.2c1.3,0,2.6-0.1,3.9-0.2c0-2.3,0-4.4,0-6.3C100.7,80.8,99.9,80.8,99,80.8z"/>
<polygon class="st2" points="35.4,45.2 35.4,51.8 35.4,86.3 42.8,86.3 42.8,51.8 53.9,51.8 53.9,45.2 "/>
</svg>
